# AST/ASF file generated using VICON BodyLanguage
# -----------------------------------------------
:version 1.10
:name VICON
:units
  mass 1.0
  length 0.45
  angle deg
:documentation
   .ast/.asf automatically generated from VICON data using
   VICON BodyBuilder and BodyLanguage model FoxedUp or BRILLIANT.MOD
:root
   order TX TY TZ RX RY RZ
   axis XYZ
   position 0 0 0  
   orientation 0 0 0 
:bonedata
  begin
     id 1 
     name lhipjoint
     direction 0.627457 -0.725269 0.283342 
     length 2.53237 
     axis 0 0 0  XYZ
  end
  begin
     id 2 
     name lfemur
     direction 0.34202 -0.939693 0  
     length 7.32496  
     axis 0 0 20  XYZ
    dof rx ry rz
    limits (-160.0 20.0)
           (-70.0 70.0)
           (-60.0 70.0)
  end
  begin
     id 3 
     name ltibia
     direction 0.34202 -0.939693 0   
     length 7.69674   
     axis 0 0 20   XYZ
    dof rx
    limits (-10.0 170.0)
  end
  begin
     id 4 
     name lfoot
     direction 0.127289 -0.349722 0.928166   
     length 1.8612   
     axis -90 7.62852e-016 20   XYZ
    dof rx rz
    limits (-45.0 90.0)
           (-70.0 20.0)
  end
  begin
     id 5 
     name ltoes
     direction 1.53561e-011 -4.21864e-011 1   
     length 0.925608   
     axis -90 7.62852e-016 20   XYZ
    dof rx
    limits (-90.0 20.0)
  end
  begin
     id 6 
     name rhipjoint
     direction -0.609094 -0.738725 0.288599   
     length 2.48624  
     axis 0 0 0  XYZ 
  end
  begin
     id 7 
     name rfemur
     direction -0.34202 -0.939693 0   
     length 7.44259   
     axis 0 0 -20   XYZ
    dof rx ry rz
    limits (-160.0 20.0)
           (-70.0 70.0)
           (-70.0 60.0)
  end
  begin
     id 8 
     name rtibia
     direction -0.34202 -0.939693 0   
     length 7.7781   
     axis 0 0 -20   XYZ
    dof rx
    limits (-10.0 170.0)
 end
 begin
     id 9 
     name rfoot
     direction -0.107015 -0.294021 0.949789   
     length 2.14741  
     axis -90 -7.62852e-016 -20   XYZ
    dof rx rz
    limits (-45.0 90.0)
           (-20.0 70.0)
  end
  begin
     id 10 
     name rtoes
     direction -1.53497e-011 -4.21924e-011 1   
     length 1.0706   
     axis -90 -7.62852e-016 -20   XYZ
    dof rx
    limits (-90.0 20.0)
  end
  begin
     id 11 
     name lowerback
     direction -0.0142066 0.998112 -0.0597545   
     length 1.86627   
     axis 0 0 0   XYZ
    dof rx ry rz
    limits (-20.0 45.0)
           (-30.0 30.0)
           (-30.0 30.0)
  end
  begin
     id 12 
     name upperback
     direction 0.00547294 0.999744 0.0219437   
     length 1.86272   
     axis 0 0 0   XYZ
    dof rx ry rz
    limits (-20.0 45.0)
           (-30.0 30.0)
           (-30.0 30.0)
  end
  begin
     id 13 
     name thorax
     direction 0.0116162 0.998704 0.0495538   
     length 1.8703   
     axis 0 0 0   XYZ
    dof rx ry rz
    limits (-20.0 45.0)
           (-30.0 30.0)
           (-30.0 30.0)
  end
  begin
     id 14 
     name lowerneck
     direction -0.0106574 0.998739 0.0490586   
     length 1.8074   
     axis 0 0 0   XYZ
    dof rx ry rz
    limits (-20.0 45.0)
           (-30.0 30.0)
           (-30.0 30.0)
  end
  begin
     id 15 
     name upperneck
     direction 0.030527 0.976587 -0.212944   
     length 1.80681   
     axis 0 0 0   XYZ
    dof rx ry rz
    limits (-20.0 45.0)
           (-30.0 30.0)
           (-30.0 30.0)
  end
  begin
     id 16
     name head
     direction 0.00869225 0.997035 -0.0764531  
     length 1.8313  
     axis 0 0 0   XYZ
    dof rx ry rz
    limits (-20.0 45.0)
           (-30.0 30.0)
           (-30.0 30.0)
  end
  begin
     id 17 
     name lclavicle
     direction 0.915958 0.399447 0.0382386  
     length 3.78965  
     axis 0 0 0   XYZ
    dof ry rz
    limits (-20.0 10.0)
           (0.0 20.0)
  end
  begin
     id 18 
     name lhumerus
     direction 1 -4.48967e-011 3.19303e-027   
     length 4.78095   
     axis -180 -30 -90   XYZ
    dof rx ry rz
    limits (-60.0 90.0)
           (-90.0 90.0)
           (-90.0 90.0)
  end
  begin
     id 19
     name lradius
     direction 1 -4.48967e-011 -3.77974e-027   
     length 3.58615   
     axis -180 -30 -90   XYZ
    dof rx
    limits (-10.0 170.0)
  end
  begin
     id 20
     name lwrist
     direction 1 -4.48927e-011 1.2807e-027   
     length 1.79307   
     axis 1.91374e-015 90 90   XYZ
    dof ry
    limits (-180.0 0.0)
 end
  begin
     id 21 
     name lhand
     direction 1 -4.49036e-011 2.5614e-027   
     length 0.659812   
     axis -1.63439e-015 90 90   XYZ
    dof rx rz
    limits (-90.0 90.0)
           (-45.0 45.0)
  end
  begin
     id 22 
     name lfingers
     direction 1 -4.49052e-011 5.1228e-027   
     length 0.531957   
     axis -3.26879e-015 90 90   XYZ
    dof rx
    limits (0.0 90.0)
  end
  begin
     id 23
     name lthumb
     direction 0.707107 -6.35012e-011 0.707107   
     length 0.763787   
     axis -90 45 2.85299e-015   XYZ
    dof rx rz
    limits (-45.0 45.0)
           (-45.0 45.0)
  end
  begin
     id 24 
     name rclavicle
     direction -0.895351 0.435135 0.0948887   
     length 3.70497  
     axis 0 0 0   XYZ 
    dof ry rz
    limits (-10.0 20.0)
           (-20.0 0.0)
  end
  begin
     id 25 
     name rhumerus
     direction -1 -4.48971e-011 2.38946e-027  
     length 4.48913   
     axis -180 30 90   XYZ
    dof rx ry rz
    limits (-90.0 60.0)
           (-90.0 90.0)
           (-90.0 90.0)
  end
  begin
     id 26 
     name rradius
     direction -1 -4.4895e-011 4.38668e-027   
     length 3.7051   
     axis -180 30 90   XYZ
    dof rx
    limits (-10.0 170.0)
  end
  begin
     id 27 
     name rwrist
     direction -1 -4.49007e-011 1.2807e-027   
     length 1.85255   
     axis 1.91374e-015 -90 -90   XYZ
    dof ry
    limits (-180.0 0.0)
  end
  begin
     id 28
     name rhand
     direction -1 -4.48851e-011 2.5614e-027   
     length 0.449136   
     axis -1.63439e-015 -90 -90   XYZ
    dof rx rz
    limits (-90.0 90.0)
           (-45.0 45.0)
  end
  begin
     id 29
     name rfingers
     direction -1 -4.49128e-011 5.1228e-027   
     length 0.362105   
     axis -3.26879e-015 -90 -90   XYZ
    dof rx
    limits (0.0 90.0)
  end
  begin
     id 30
     name rthumb
     direction -0.707107 -6.34851e-011 0.707107   
     length 0.519912   
     axis -90 -45 -2.85299e-015   XYZ
    dof rx rz
    limits (-45.0 45.0)
           (-45.0 45.0)
  end
:hierarchy
  begin
    root lhipjoint rhipjoint lowerback
    lhipjoint lfemur
    lfemur ltibia
    ltibia lfoot
    lfoot ltoes
    rhipjoint rfemur
    rfemur rtibia
    rtibia rfoot
    rfoot rtoes
    lowerback upperback
    upperback thorax
    thorax lowerneck lclavicle rclavicle
    lowerneck upperneck
    upperneck head
    lclavicle lhumerus
    lhumerus lradius
    lradius lwrist
    lwrist lhand lthumb
    lhand lfingers
    rclavicle rhumerus
    rhumerus rradius
    rradius rwrist
    rwrist rhand rthumb
    rhand rfingers
  end

#!OML:ASF I:\Actors\actors\Patient Classification 2\Patient 1\Session 1\actor1.ASF
:FULLY-SPECIFIED
:DEGREES
51
root -0.677544 18.6975 5.68683 3.33534 -4.01566 -2.61775
lowerback -2.22871 1.18322 0.761937
upperback -2.04874 1.56673 0.144052
thorax -0.832916 0.775447 -0.256295
lowerneck -10.7745 -1.7303 -0.532831
upperneck 23.8317 -3.22991 3.62106
head 9.33763 -1.17167 0.973367
rclavicle 2.73329e-015 8.74653e-015
rhumerus -45.6678 2.81427 -91.4646
rradius 39.6895
rwrist 16.825
rhand -7.69431 -33.0973
rfingers 7.12502
rthumb 18.203 -62.2656
lclavicle 2.73329e-015 8.74653e-015
lhumerus -41.6565 -6.08271 94.074
lradius 36.7995
lwrist -4.66699
lhand -6.92617 -23.6201
lfingers 7.12502
lthumb 18.9418 5.47765
rfemur 0 0 0
rtibia 0
rfoot 0 0
rtoes 0
lfemur -4.91832 -7.57143 -11.9291
ltibia 21.255
lfoot -25.798 18.3363
ltoes -54.238
52
root -0.677357 18.6977 5.68691 3.32623 -4.00998 -2.58963
lowerback -2.22806 1.17915 0.74168
upperback -2.04156 1.56149 0.128475
thorax -0.826063 0.772998 -0.260894
lowerneck -10.7828 -1.72434 -0.522605
upperneck 23.8342 -3.22282 3.6171
head 9.33968 -1.16774 0.971012
rclavicle -1.74309e-014 -1.98785e-015
rhumerus -45.6424 2.82879 -91.4597
rradius 39.6659
rwrist 16.8144
rhand -7.79462 -33.1202
rfingers 7.12502
rthumb 18.1064 -62.2974
lclavicle -1.74309e-014 -1.98785e-015
lhumerus -41.6543 -6.07547 94.0585
lradius 36.7982
lwrist -4.68288
lhand -6.99475 -23.6588
lfingers 7.12502
lthumb 18.8759 5.44536
rfemur 0 0 0
rtibia 0
rfoot 0 0
rtoes 0
lfemur -4.91447 -7.57786 -11.9623
ltibia 21.2595
lfoot -25.7592 18.3203
ltoes -54.2286
53
root -0.677479 18.6977 5.6869 3.33567 -4.01588 -2.58298
lowerback -2.2509 1.17207 0.738185
upperback -2.03781 1.5518 0.120999
thorax -0.809408 0.768209 -0.266165
lowerneck -10.7629 -1.70951 -0.506738
upperneck 23.8186 -3.2004 3.60069
head 9.32933 -1.15814 0.965289
rclavicle 1.11568e-014 1.19271e-014
rhumerus -45.6003 2.89808 -91.4722
rradius 39.6381
rwrist 16.7564
rhand -7.80156 -33.1376
rfingers 7.12502
rthumb 18.0998 -62.3155
lclavicle 1.11568e-014 1.19271e-014
lhumerus -41.6654 -6.03581 94.029
lradius 36.8275
lwrist -4.70719
lhand -7.00671 -23.635
lfingers 7.12502
lthumb 18.8644 5.47024
rfemur 0 0 0
rtibia 0
rfoot 0 0
rtoes 0
lfemur -4.91877 -7.611 -11.9735
ltibia 21.2564
lfoot -25.7914 18.3357
ltoes -54.1618
54
root -0.677457 18.6974 5.68679 3.34505 -4.0296 -2.60321
lowerback -2.27782 1.17449 0.769002
upperback -2.02904 1.55426 0.120517
thorax -0.784525 0.769188 -0.283124
lowerneck -10.7462 -1.6989 -0.493496
upperneck 23.8075 -3.18277 3.58125
head 9.3213 -1.15119 0.958425
rclavicle -1.28465e-014 3.97569e-015
rhumerus -45.5742 2.91051 -91.4741
rradius 39.6373
rwrist 16.7454
rhand -7.72727 -33.1999
rfingers 7.12502
rthumb 18.1712 -62.3711
lclavicle -1.28465e-014 3.97569e-015
lhumerus -41.6777 -6.03264 94.0211
lradius 36.8709
lwrist -4.68944
lhand -6.94867 -23.5557
lfingers 7.12502
lthumb 18.9202 5.54407
rfemur 0 0 0
rtibia 0
rfoot 0 0
rtoes 0
lfemur -4.91619 -7.63691 -11.9567
ltibia 21.2486
lfoot -25.8613 18.3793
ltoes -54.1809
55
root -0.67757 18.6971 5.68673 3.33467 -4.03042 -2.58674
lowerback -2.2695 1.17976 0.761747
upperback -2.02701 1.5614 0.106779
thorax -0.786834 0.772747 -0.293165
lowerneck -10.772 -1.69695 -0.499665
upperneck 23.864 -3.18782 3.60762
head 9.3467 -1.15009 0.968007
rclavicle -2.83268e-015 -8.74653e-015
rhumerus -45.5821 2.89331 -91.4798
rradius 39.6523
rwrist 16.7496
rhand -7.6863 -33.2769
rfingers 7.12502
rthumb 18.2107 -62.4444
lclavicle -2.83268e-015 -8.74653e-015
lhumerus -41.6954 -6.05774 94.0172
lradius 36.9012
lwrist -4.66949
lhand -6.84785 -23.504
lfingers 7.12502
lthumb 19.0171 5.58635
rfemur 0 0 0
rtibia 0
rfoot 0 0
rtoes 0
lfemur -4.9083 -7.58849 -11.9716
ltibia 21.2474
lfoot -25.8611 18.3607
ltoes -54.2568
56
root -0.677872 18.6975 5.68643 3.33351 -4.02843 -2.57372
lowerback -2.24839 1.18202 0.751044
upperback -2.04348 1.56479 0.0900673
thorax -0.815311 0.774312 -0.304929
lowerneck -10.7749 -1.69779 -0.487156
upperneck 23.9171 -3.19787 3.62342
head 9.36629 -1.15115 0.970388
rclavicle -2.37423e-014 -3.18055e-015
rhumerus -45.631 2.85518 -91.4988
rradius 39.6603
rwrist 16.78
rhand -7.72007 -33.1938
rfingers 7.12502
rthumb 18.1782 -62.3644
lclavicle -2.37423e-014 -3.18055e-015
lhumerus -41.7225 -6.07858 93.997
lradius 36.9087
lwrist -4.67857
lhand -6.79911 -23.5073
lfingers 7.12502
lthumb 19.064 5.57836
rfemur 0 0 0
rtibia 0
rfoot 0 0
rtoes 0
lfemur -4.91516 -7.5379 -11.9789
ltibia 21.2501
lfoot -25.7949 18.3262
ltoes -54.2561
57
root -0.677769 18.698 5.68629 3.33667 -4.02982 -2.58463
lowerback -2.2406 1.17421 0.771492
upperback -2.05273 1.55418 0.0860281
thorax -0.828612 0.768664 -0.320967
lowerneck -10.7718 -1.68103 -0.444585
upperneck 23.9489 -3.17193 3.57257
head 9.37465 -1.14033 0.948724
rclavicle -4.87022e-015 5.56597e-015
rhumerus -45.6455 2.89355 -91.52
rradius 39.6451
rwrist 16.7758
rhand -7.75697 -33.0615
rfingers 7.12502
rthumb 18.1427 -62.2354
lclavicle -4.87022e-015 5.56597e-015
lhumerus -41.7511 -6.05019 93.9693
lradius 36.9176
lwrist -4.74431
lhand -6.8485 -23.554
lfingers 7.12502
lthumb 19.0165 5.53641
rfemur 0 0 0
rtibia 0
rfoot 0 0
rtoes 0
lfemur -4.91979 -7.54305 -11.968
ltibia 21.253
lfoot -25.7576 18.3464
ltoes -54.2336
58
root -0.678009 18.698 5.68559 3.33655 -4.03132 -2.59036
lowerback -2.23969 1.17009 0.780842
upperback -2.04121 1.54851 0.0877613
thorax -0.817184 0.765805 -0.324374
lowerneck -10.8563 -1.6705 -0.423488
upperneck 24.0419 -3.15519 3.52862
head 9.42186 -1.13297 0.93161
rclavicle 3.60297e-016 -3.97569e-015
rhumerus -45.6019 2.94347 -91.523
rradius 39.6214
rwrist 16.733
rhand -7.80811 -33.0618
rfingers 7.12502
rthumb 18.0935 -62.2402
lclavicle 3.60297e-016 -3.97569e-015
lhumerus -41.7258 -6.01969 93.956
lradius 36.8988
lwrist -4.80835
lhand -6.90968 -23.5781
lfingers 7.12502
lthumb 18.9577 5.51809
rfemur 0 0 0
rtibia 0
rfoot 0 0
rtoes 0
lfemur -4.92506 -7.55598 -11.9599
ltibia 21.2579
lfoot -25.7927 18.3472
ltoes -54.1928
59
root -0.678433 18.698 5.685 3.33321 -4.02701 -2.59854
lowerback -2.2285 1.17306 0.791144
upperback -2.03277 1.55236 0.0789115
thorax -0.814233 0.767584 -0.339267
lowerneck -10.9356 -1.67536 -0.407655
upperneck 24.1206 -3.16902 3.52719
head 9.46476 -1.136 0.926556
rclavicle 2.23633e-014 7.55382e-015
rhumerus -45.6025 2.90889 -91.542
rradius 39.6367
rwrist 16.7366
rhand -7.84732 -33.1377
rfingers 7.12502
rthumb 18.0557 -62.3196
lclavicle 2.23633e-014 7.55382e-015
lhumerus -41.6898 -6.05006 93.9473
lradius 36.8616
lwrist -4.81133
lhand -6.94161 -23.6084
lfingers 7.12502
lthumb 18.927 5.49078
rfemur 0 0 0
rtibia 0
rfoot 0 0
rtoes 0
lfemur -4.92778 -7.55595 -11.9456
ltibia 21.2608
lfoot -25.8068 18.3228
ltoes -54.1747
60
root -0.678538 18.6978 5.68548 3.32432 -4.02337 -2.60661
lowerback -2.21328 1.17333 0.814583
upperback -2.0333 1.55246 0.0624639
thorax -0.822228 0.767222 -0.369552
lowerneck -10.935 -1.67506 -0.396643
upperneck 24.1219 -3.17487 3.54259
head 9.46544 -1.13606 0.929344
rclavicle -2.29596e-014 1.39149e-014
rhumerus -45.6307 2.88267 -91.575
rradius 39.6651
rwrist 16.7408
rhand -7.78328 -33.2092
rfingers 7.12502
rthumb 18.1174 -62.3854
lclavicle -2.29596e-014 1.39149e-014
lhumerus -41.715 -6.06897 93.9254
lradius 36.8913
lwrist -4.81103
lhand -6.95102 -23.6263
lfingers 7.12502
lthumb 18.9179 5.47369
rfemur 0 0 0
rtibia 0
rfoot 0 0
rtoes 0
lfemur -4.91644 -7.54605 -11.9364
ltibia 21.2581
lfoot -25.7647 18.3007
ltoes -54.1635
61
root -0.6792 18.6974 5.68645 3.31782 -4.03447 -2.59469
lowerback -2.21478 1.18151 0.808897
upperback -2.02919 1.56334 0.0468574
thorax -0.816763 0.772655 -0.382079
lowerneck -10.9254 -1.68481 -0.429005
upperneck 24.1095 -3.19062 3.58057
head 9.46076 -1.14249 0.946183
rclavicle -9.20621e-015 9.14409e-015
rhumerus -45.6447 2.80749 -91.5614
rradius 39.677
rwrist 16.8084
rhand -7.66723 -33.185
rfingers 7.12502
rthumb 18.229 -62.3508
lclavicle -9.20621e-015 9.14409e-015
lhumerus -41.7617 -6.06311 93.9058
lradius 36.9645
lwrist -4.84058
lhand -6.91658 -23.6106
lfingers 7.12502
lthumb 18.9511 5.48614
rfemur 0 0 0
rtibia 0
rfoot 0 0
rtoes 0
lfemur -4.8986 -7.56945 -11.9555
ltibia 21.2522
lfoot -25.7733 18.3303
ltoes -54.1568
62
root -0.679952 18.6973 5.68755 3.3186 -4.03768 -2.56939
lowerback -2.23398 1.18922 0.784911
upperback -2.02232 1.57366 0.0309354
thorax -0.799036 0.778074 -0.384254
lowerneck -10.9261 -1.69339 -0.459802
upperneck 24.1038 -3.20616 3.62163
head 9.46051 -1.14811 0.963791
rclavicle 1.8723e-014 1.63003e-014
rhumerus -45.6306 2.76869 -91.5456
rradius 39.6692
rwrist 16.8277
rhand -7.60818 -33.0413
rfingers 7.12502
rthumb 18.2858 -62.2018
lclavicle 1.8723e-014 1.63003e-014
lhumerus -41.7874 -6.0394 93.8828
lradius 36.9996
lwrist -4.89158
lhand -6.87274 -23.6376
lfingers 7.12502
lthumb 18.9932 5.45503
rfemur 0 0 0
rtibia 0
rfoot 0 0
rtoes 0
lfemur -4.88977 -7.60836 -11.9879
ltibia 21.2426
lfoot -25.8196 18.39
ltoes -54.2228
